<?xml version="1.0" encoding="UTF-8"?>
<svg viewBox="0 0 100 100" xmlns="http://www.w3.org/2000/svg">
<path d="M93.238 61.582c-3.095 11.55-10.503 21.205-20.86 27.184-10.355 5.98-22.42 7.567-33.97 4.473-11.551-3.095-21.205-10.503-27.184-20.86-5.98-10.355-7.568-22.42-4.473-33.97 3.096-11.551 10.503-21.205 20.86-27.185 6.898-3.983 14.553-6.017 22.311-6.017 3.888 0 7.804.511 11.66 1.545 11.55 3.095 21.204 10.502 27.183 20.859 5.98 10.356 7.568 22.42 4.473 33.971zm.044-36.571C86.608 13.45 75.83 5.18 62.935 1.725 50.041-1.731 36.572.042 25.011 6.718 13.449 13.393 5.18 24.17 1.724 37.065-1.73 49.96.043 63.428 6.717 74.989 13.392 86.55 24.17 94.82 37.065 98.275A50.248 50.248 0 0 0 50.08 100c8.66 0 17.208-2.271 24.908-6.717C86.55 86.608 94.82 75.83 98.276 62.936c3.455-12.896 1.681-26.364-4.994-37.925z" fill="#fff"/>
<path d="M71.368 50.606L38.947 69.18a.219.219 0 0 1-.244 0c-.122-.07-.122-.164-.122-.21v-37.15c0-.046 0-.14.122-.21a.248.248 0 0 1 .125-.037c.055 0 .095.023.119.037l32.42 18.576c.04.022.123.07.123.21 0 .139-.083.186-.122.209zm2.626-4.936L41.573 27.099a5.478 5.478 0 0 0-5.495 0c-1.72.985-2.748 2.75-2.748 4.721v37.142c0 1.97 1.027 3.735 2.748 4.721.86.493 1.803.739 2.747.739a5.52 5.52 0 0 0 2.748-.74l32.42-18.57c1.721-.985 2.748-2.75 2.748-4.721 0-1.97-1.027-3.736-2.747-4.721z" fill="#fff"/>
<path d="M80.854 26.117C74.738 18.271 65.544 13 55.63 11.654a2.57 2.57 0 0 0-2.896 2.185 2.558 2.558 0 0 0 2.2 2.876c8.59 1.165 16.556 5.733 21.853 12.53.507.65 1.267.99 2.035.99a2.57 2.57 0 0 0 1.573-.535 2.542 2.542 0 0 0 .46-3.583z" fill="#fff"/>
</svg>
